<?xml version="1.0" encoding="utf-8"?>
<!-- Generator: Adobe Illustrator 19.0.0, SVG Export Plug-In . SVG Version: 6.00 Build 0)  -->
<svg version="1.1" id="Layer_1" xmlns="http://www.w3.org/2000/svg" xmlns:xlink="http://www.w3.org/1999/xlink" x="0px" y="0px"
	 viewBox="224 -224 512 512" style="enable-background:new 224 -224 512 512;" xml:space="preserve">
<style type="text/css">
	.st0{fill:#fff;}
	.st1{fill:#fff;}
</style>
<g>
	<polygon class="st0" points="672.1,166.5 639.8,166.5 639.8,-144.4 395.8,-144.4 395.8,154.6 363.5,154.6 363.5,-176.6 
		672.1,-176.6 	"/>
</g>
<g>
	<path class="st0" d="M654.1,223.4H290.4c-9.9,0-17.9-8.2-17.9-18.3v-311.2h32.2v297.3h335.1v-297.5h32.2v311.4
		C672.1,215.2,664,223.4,654.1,223.4z"/>
</g>
<g>
	<rect x="272.1" y="-137.7" class="st1" width="60.8" height="33"/>
</g>
<g>
	<rect x="425.9" y="-114.6" class="st1" width="183.4" height="33"/>
</g>
<g>
	<rect x="425.9" y="-52.7" class="st1" width="151.8" height="33"/>
</g>
<g>
	<rect x="425.9" y="10.3" class="st1" width="120.7" height="33"/>
</g>
<g>
	<rect x="425.9" y="72" class="st1" width="183.4" height="33"/>
</g>
</svg>
